# xmcd
#
# Track frame offsets:
#	150
#	17555
#	31430
#	46355
#	62928
#	78755
#	91953
#	105080
#	117910
#	132838
#
# Disc length: 1954 seconds
#
# Revision: 2
# Processed by: cddbd v1.4PL0 Copyright (c) Steve Scherf et al.
# Submitted via: audiograbber 1.81.02
#
DISCID=7207a00a
DTITLE=Various Artist - Number 1 Country Stars, Volume 1
DYEAR=1996
DGENRE=Country
TTITLE0=Ricky Skaggs - Country Boy
TTITLE1=Highwayman - The Highwayman
TTITLE2=Mickey Gilley - Fool For Your Love
TTITLE3=Exile - Hang On To Your Heart
TTITLE4=Ricky Skaggs - Honey (Open That Door)
TTITLE5=Larry Gatlin and The Gatlin Brothers - Houston (Means I'm One Day Closer 
TTITLE5=To You)
TTITLE6=Ronnie McDowell - You're Gonna Ruin My Bad Reputation
TTITLE7=Merle Haggard - Let's Chase Each Other Around The Room
TTITLE8=Rosanne Cash - I Don't Know Why You Don't Want Me
TTITLE9=John Conlee - Got My Heart Set On You
EXTD=
EXTT0=Ricky Skaggs
EXTT1=Highwayman
EXTT2=Mickey Gilley
EXTT3=Exile
EXTT4=Ricky Skaggs
EXTT5=Larry Gatlin and The Gatlin Brothers
EXTT6=Ronnie McDowell
EXTT7=Merle Haggard
EXTT8=Rosanne Cash
EXTT9=John Conlee
PLAYORDER=
